<?xml version="1.0" encoding="iso-8859-1"?>
<!-- Generator: Adobe Illustrator 16.0.0, SVG Export Plug-In . SVG Version: 6.00 Build 0)  -->
<!DOCTYPE svg PUBLIC "-//W3C//DTD SVG 1.1//EN" "http://www.w3.org/Graphics/SVG/1.1/DTD/svg11.dtd">
<svg xmlns="http://www.w3.org/2000/svg" xmlns:xlink="http://www.w3.org/1999/xlink" version="1.1" id="Capa_1" x="0px" y="0px" width="512px" height="512px" viewBox="0 0 213.762 213.762" style="enable-background:new 0 0 213.762 213.762;" xml:space="preserve">
<g>
	<path d="M106.881,0C47.948,0,0,47.949,0,106.881c0,58.93,47.948,106.881,106.881,106.881c58.93,0,106.881-47.951,106.881-106.881   C213.762,47.949,165.811,0,106.881,0z M106.881,210.257c-57.004,0-103.376-46.37-103.376-103.376   c0-57.005,46.372-103.377,103.376-103.377c57.003,0,103.377,46.372,103.377,103.377   C210.258,163.887,163.88,210.257,106.881,210.257z" fill="#933EC5"/>
	<path d="M139.214,96.273l-64.881,0.014c-4.959,0.603-8.698,7.339-8.698,15.662c0,3.658,0.763,7.237,2.13,10.03   c2.796,6.091,9.55,10.02,17.191,10.02c6.221,0,11.993-2.655,15.357-7.005c1.489-1.674,2.756-3.545,3.795-5.63l0.182-0.506   c0.308-1.396,1.535-1.896,2.583-1.896c1.047,0,2.277,0.5,2.578,1.835l0.218,0.619c1.01,2.029,2.274,3.904,3.686,5.479   c3.442,4.449,9.213,7.102,15.438,7.102c7.642,0,14.391-3.933,17.176-9.982c1.383-2.834,2.143-6.406,2.143-10.071   C148.114,103.623,144.381,96.89,139.214,96.273z" fill="#933EC5"/>
	<path d="M170.171,86.931h-6.544c-6.543-34.216-29.499-59.552-56.746-59.552s-50.21,25.336-56.753,59.552h-6.542   c-7.055,0-12.375,11.676-12.375,27.157c0,15.481,5.323,27.158,12.375,27.158h12.373v-10.608   c7.654,26.312,27.559,45.162,50.922,45.162c23.356,0,43.26-18.839,50.915-45.139v10.585h12.375   c7.049,0,12.371-11.677,12.371-27.158C182.542,98.607,177.22,86.931,170.171,86.931z M106.881,30.883   c25.386,0,46.802,23.791,53.177,56.048h-2.262v0.914c-7.683-26.586-27.85-45.278-50.915-45.278   c-23.062,0-43.237,18.692-50.922,45.287v-0.922h-2.26C60.069,54.674,81.495,30.883,106.881,30.883z M106.881,172.292   c-28.017,0-50.812-29.346-50.812-65.411c0-0.977,0.031-1.99,0.073-3.027l0.346-0.886c0.421-1.08,10.446-26.402,24.787-27.191   c8.095-0.448,10.082,1.571,12.111,3.708c1.766,1.858,3.766,3.963,9.038,3.963h8.907c5.269,0,7.271-2.104,9.037-3.963   c2.029-2.13,4.037-4.136,12.11-3.708c14.38,0.792,24.366,26.108,24.783,27.188l0.356,0.907c0.041,1.033,0.071,2.04,0.071,3.01   C157.693,142.946,134.895,172.292,106.881,172.292z" fill="#933EC5"/>
</g>
<g>
</g>
<g>
</g>
<g>
</g>
<g>
</g>
<g>
</g>
<g>
</g>
<g>
</g>
<g>
</g>
<g>
</g>
<g>
</g>
<g>
</g>
<g>
</g>
<g>
</g>
<g>
</g>
<g>
</g>
</svg>
